<?xml version="1.0" standalone="no"?>
<!DOCTYPE svg PUBLIC "-//W3C//DTD SVG 20010904//EN"
 "http://www.w3.org/TR/2001/REC-SVG-20010904/DTD/svg10.dtd">
<svg version="1.0" xmlns="http://www.w3.org/2000/svg"
 width="600.000000pt" height="230.000000pt" viewBox="0 0 600.000000 230.000000"
 preserveAspectRatio="xMidYMid meet">

<g transform="translate(0.000000,230.000000) scale(0.100000,-0.100000)"
fill="#000000" stroke="none">
<path d="M511 2135 c-83 -23 -170 -74 -232 -136 -61 -61 -119 -163 -102 -180
6 -6 23 13 49 57 96 164 261 254 443 241 142 -10 269 -81 350 -196 61 -88 83
-158 85 -266 1 -113 -25 -195 -89 -280 -28 -37 -41 -63 -35 -69 21 -21 90 74
130 179 31 80 34 233 6 315 -26 76 -78 161 -127 205 -22 20 -39 38 -37 40 5 5
1779 -503 1787 -511 3 -4 0 -9 -7 -12 -24 -8 -83 -64 -98 -93 -22 -44 -2 -34
24 11 52 91 180 122 276 66 98 -57 133 -193 74 -284 -30 -45 -34 -57 -17 -46
19 12 59 108 59 143 0 82 -49 165 -120 201 -21 10 -64 23 -96 29 -33 5 -518
141 -1079 302 -917 263 -1029 293 -1105 296 -55 2 -104 -3 -139 -12z"/>
<path d="M3747 2106 c-110 -45 -177 -106 -226 -203 -31 -61 -9 -53 27 10 57
101 163 175 279 197 169 30 344 -63 425 -227 30 -62 33 -75 33 -163 0 -82 -4
-103 -27 -152 -15 -32 -39 -74 -54 -93 -15 -20 -25 -38 -22 -40 9 -9 57 50 85
105 26 51 28 63 28 175 0 108 -3 125 -26 175 -14 30 -49 81 -78 113 -29 31
-49 57 -45 57 4 0 44 -11 88 -25 108 -34 598 -174 661 -190 28 -7 113 -31 190
-54 170 -50 269 -78 442 -127 73 -20 131 -40 128 -44 -2 -4 7 -5 22 -2 38 7
17 16 -169 68 -89 25 -237 67 -328 94 -91 26 -248 71 -350 99 -102 29 -212 61
-245 71 -33 10 -105 31 -160 45 -107 29 -213 60 -365 106 -126 38 -228 39
-313 5z"/>
<path d="M625 2058 c-2 -7 -6 -29 -7 -48 -3 -32 -6 -35 -45 -42 -38 -6 -94
-31 -135 -60 -15 -11 -23 -7 -52 21 -50 48 -69 30 -20 -20 l38 -39 -21 -22
c-27 -28 -62 -105 -63 -135 0 -45 -10 -53 -62 -53 -68 0 -60 -24 10 -28 48 -3
52 -5 52 -27 0 -36 36 -124 61 -152 l23 -23 -38 -39 c-48 -49 -30 -68 19 -21
l34 33 55 -29 56 -29 0 -72 c0 -87 -3 -88 -98 -43 -125 59 -227 194 -254 334
-8 40 -18 66 -25 66 -17 0 -16 -33 2 -103 41 -159 158 -288 310 -343 59 -21
60 -22 63 -63 l3 -41 -215 -2 c-134 -2 -217 -7 -219 -13 -3 -15 385 -17 1731
-9 885 5 1202 9 1199 18 -2 6 -35 12 -80 14 -57 2 -77 6 -77 17 0 7 6 16 13
18 9 4 9 6 0 6 -8 1 -13 15 -13 34 0 25 6 35 27 44 22 11 29 10 43 -2 24 -22
36 -18 15 5 -16 18 -17 22 -1 54 9 19 16 39 16 44 0 6 12 13 28 15 26 4 26 4
2 6 -20 1 -28 10 -42 48 -16 44 -16 49 -1 65 9 10 11 18 6 18 -6 0 -16 -6 -22
-14 -10 -11 -17 -11 -48 5 -21 11 -43 19 -49 19 -7 0 -15 10 -17 23 -4 19 -4
19 -6 2 -1 -26 -86 -64 -104 -46 -6 6 -16 11 -21 11 -6 0 -2 -7 9 -15 18 -15
18 -16 2 -44 -9 -16 -17 -38 -17 -49 0 -15 -8 -22 -27 -25 l-28 -4 28 -2 c17
0 27 -7 27 -16 0 -9 7 -30 16 -46 14 -28 14 -32 -2 -50 -9 -10 -12 -19 -7 -19
6 0 16 6 23 14 9 12 17 13 36 4 19 -9 24 -19 24 -49 0 -32 -3 -36 -20 -32 -40
11 -108 82 -129 136 -11 29 -20 44 -20 34 -1 -29 24 -81 60 -122 l34 -38 -300
6 c-165 4 -595 12 -955 18 -532 9 -657 14 -666 25 -6 8 -19 14 -28 14 -13 0
-16 12 -16 74 0 68 2 75 22 82 13 4 40 18 61 32 l38 25 39 -38 c55 -54 74 -35
20 20 -40 41 -42 45 -26 60 24 25 45 68 60 127 l13 53 52 1 c86 2 86 26 0 28
l-52 1 -12 50 c-12 54 -48 129 -66 140 -7 5 5 23 31 50 54 55 35 74 -20 20
l-37 -36 -44 30 c-24 17 -66 36 -94 42 -27 6 -56 13 -62 15 -8 2 -13 21 -13
49 0 42 -15 61 -25 33z m13 -276 c9 -3 12 17 12 77 0 44 3 82 8 84 14 9 102
-20 143 -47 l41 -28 -46 -47 c-42 -42 -57 -71 -39 -71 4 0 29 21 56 48 l48 47
19 -25 c23 -30 50 -104 50 -137 0 -23 -3 -24 -65 -22 -62 2 -86 -4 -72 -17 3
-4 34 -7 69 -8 l63 -1 -3 -33 c-2 -31 -32 -101 -55 -130 -8 -10 -21 -3 -59 35
-32 31 -51 44 -58 37 -7 -7 5 -25 35 -54 25 -24 45 -48 45 -52 0 -8 -70 -58
-82 -58 -5 0 -8 7 -8 16 0 8 -13 29 -29 45 -24 24 -38 29 -76 29 -38 0 -52 -5
-76 -29 -16 -16 -29 -37 -29 -45 0 -9 -2 -16 -4 -16 -10 0 -76 42 -76 49 0 4
20 27 45 51 41 40 57 70 38 70 -4 0 -28 -21 -54 -46 -29 -29 -53 -45 -62 -41
-19 7 -65 102 -69 142 l-3 30 75 5 c41 3 75 10 75 15 0 6 -34 11 -76 13 l-77
3 10 42 c9 42 56 137 67 137 4 0 29 -22 56 -50 27 -27 53 -50 57 -50 19 0 4
28 -38 71 -26 26 -43 52 -40 58 11 17 80 50 123 59 l38 8 5 -80 c3 -51 9 -81
18 -84z m2184 -359 l1 -38 4 38 c4 36 6 38 31 32 15 -3 33 -13 41 -20 13 -13
12 -17 -2 -33 -26 -28 -20 -39 6 -13 27 25 40 17 52 -32 7 -25 5 -27 -26 -29
l-34 -1 33 -4 c17 -2 32 -6 32 -7 0 -2 -5 -17 -11 -35 -12 -35 -24 -38 -53
-13 -21 17 -21 17 -3 -4 21 -26 22 -40 1 -48 -11 -4 -22 1 -31 14 -18 26 -47
25 -73 -2 -15 -17 -23 -19 -32 -10 -9 9 -6 18 12 37 13 14 19 25 13 25 -5 0
-18 -9 -29 -21 l-19 -21 -17 22 c-29 36 -23 60 15 62 l32 1 -32 4 c-36 5 -40
17 -21 58 14 30 19 31 43 5 10 -11 23 -20 28 -20 6 0 -2 13 -18 30 l-28 30 34
14 c48 21 49 21 51 -21z m-2126 -11 c10 -12 13 -61 14 -174 l0 -158 -75 0 -75
0 0 158 c1 167 5 183 51 200 28 11 66 -1 85 -26z m2152 -184 c7 -7 12 -39 12
-75 l0 -63 -35 0 -35 0 0 63 c0 60 11 87 35 87 6 0 16 -5 23 -12z m-1518 -93
c844 -15 1445 -28 1449 -31 2 -2 1 -7 -3 -11 -4 -4 -463 -9 -1021 -11 l-1015
-4 0 36 0 37 153 -5 c83 -3 280 -8 437 -11z"/>
<path d="M3882 2021 c2 -22 2 -38 0 -37 -9 9 -97 -17 -133 -39 l-41 -27 -27
26 c-37 36 -51 33 -17 -3 l28 -30 -31 -62 c-17 -34 -31 -75 -31 -91 0 -27 -2
-28 -45 -28 -25 0 -45 -4 -45 -10 0 -5 20 -10 45 -10 42 0 45 -2 45 -27 0 -31
42 -127 60 -138 8 -5 2 -18 -21 -41 -18 -19 -29 -37 -25 -41 4 -5 21 7 37 25
l30 33 50 -31 49 -32 0 -65 c0 -74 1 -73 -96 -27 -99 47 -196 175 -210 278 -4
26 -11 49 -15 52 -23 14 5 -106 40 -174 44 -87 111 -144 220 -188 52 -21 56
-26 62 -61 3 -21 7 22 8 95 1 127 2 134 26 157 32 33 68 32 94 -1 19 -24 21
-40 21 -155 l0 -129 -72 0 c-40 -1 -145 -1 -233 -1 -88 1 -173 -4 -190 -9 -20
-7 324 -8 1020 -5 578 3 1131 5 1229 5 99 0 177 2 174 5 -4 5 -1124 7 -1723 4
-88 -1 -166 -1 -172 0 -7 1 -13 14 -13 31 l0 31 358 -6 c196 -3 556 -10 799
-16 526 -11 570 -11 529 1 -16 5 -43 22 -60 37 l-31 28 24 -27 c14 -16 23 -30
20 -32 -2 -2 -281 2 -619 10 -338 7 -699 14 -802 14 -155 1 -188 4 -188 16 0
8 -7 14 -15 14 -12 0 -15 14 -15 63 l0 62 43 25 c23 14 46 27 50 29 5 2 24
-12 43 -30 23 -22 34 -28 34 -18 0 9 -13 28 -30 42 l-30 27 24 35 c13 19 29
57 36 85 l12 50 44 0 c24 0 44 4 44 9 0 5 -16 8 -34 6 -46 -3 -52 2 -66 55 -6
25 -21 62 -33 83 l-21 37 29 30 c37 39 24 52 -15 15 -26 -25 -34 -27 -48 -17
-42 29 -80 46 -117 51 -38 6 -40 8 -43 44 -2 20 -8 37 -14 37 -6 0 -9 -16 -6
-39z m-2 -116 c0 -37 4 -65 10 -65 6 0 10 28 10 65 0 61 1 65 23 65 24 0 91
-29 122 -53 20 -15 19 -17 -19 -56 -22 -22 -37 -44 -33 -48 4 -4 26 11 48 33
39 38 41 39 56 19 23 -30 43 -81 43 -110 0 -24 -3 -25 -55 -25 -30 0 -55 -4
-55 -10 0 -5 25 -10 55 -10 51 0 55 -2 55 -23 0 -30 -48 -127 -63 -127 -6 0
-28 17 -49 37 -21 20 -38 33 -38 27 0 -6 16 -25 35 -44 19 -19 35 -37 35 -41
0 -9 -63 -49 -78 -49 -5 0 -13 11 -16 25 -4 16 -20 32 -40 42 -43 20 -85 7
-106 -33 -8 -16 -16 -31 -17 -33 -4 -6 -73 33 -73 41 0 4 19 25 42 47 24 22
39 43 35 47 -4 4 -28 -12 -53 -37 -49 -48 -47 -49 -83 21 -10 19 -22 50 -26
68 l-7 32 67 0 c42 0 64 4 60 10 -3 6 -33 10 -66 10 l-61 0 7 33 c4 17 16 48
26 67 36 70 34 69 83 21 25 -25 48 -42 51 -39 4 3 -13 25 -37 47 l-43 41 29
24 c29 24 75 43 109 45 14 1 17 -8 17 -64z"/>
<path d="M3480 1780 c0 -5 5 -10 10 -10 6 0 10 5 10 10 0 6 -4 10 -10 10 -5 0
-10 -4 -10 -10z"/>
<path d="M136 1731 c-7 -11 18 -33 27 -24 4 3 7 12 7 20 0 15 -26 18 -34 4z"/>
<path d="M4680 1535 c0 -148 1 -155 20 -155 19 0 20 7 20 155 0 148 -1 155
-20 155 -19 0 -20 -7 -20 -155z"/>
<path d="M4800 1670 c-29 -29 -25 -64 11 -105 23 -26 37 -34 55 -31 13 3 26 1
29 -4 3 -5 -4 -7 -16 -5 -22 4 -22 4 1 -20 27 -29 35 -31 26 -10 -3 8 -1 15 5
15 6 0 7 -14 3 -37 -4 -21 -7 -43 -7 -49 0 -7 -14 -10 -36 -8 -55 5 -60 7 -56
15 10 16 -7 37 -26 32 -23 -6 -23 -8 -2 -44 20 -34 64 -50 107 -38 40 12 48
21 53 65 3 34 -1 41 -51 90 -30 30 -61 52 -68 50 -7 -1 -11 -1 -8 1 3 1 4 21
4 42 -2 37 -1 39 27 37 17 -1 36 -11 45 -24 17 -24 44 -30 44 -9 0 8 -10 23
-23 35 -30 29 -89 30 -117 2z"/>
<path d="M5000 1535 c0 -148 1 -155 20 -155 18 0 20 7 21 73 1 39 1 74 1 77 0
3 17 4 39 2 30 -3 39 -1 39 11 0 11 -12 17 -37 19 -36 3 -38 5 -41 42 -4 46 7
56 61 56 26 0 37 4 37 15 0 12 -14 15 -70 15 l-70 0 0 -155z"/>
<path d="M1745 1619 c-33 -19 -45 -41 -45 -82 0 -37 6 -46 76 -111 60 -57 75
-77 72 -95 -7 -53 -76 -54 -98 -1 -8 20 -18 29 -27 26 -8 -4 -19 -6 -24 -6
-15 0 -10 -33 11 -67 46 -77 179 -55 196 32 8 46 -13 80 -90 148 -65 58 -77
82 -54 105 21 21 55 14 75 -17 15 -24 22 -27 41 -20 21 8 22 10 8 37 -8 16
-22 34 -30 41 -21 18 -87 24 -111 10z"/>
<path d="M1570 1429 l0 -190 31 3 30 3 2 188 2 187 -32 0 -33 0 0 -191z"/>
<path d="M1960 1440 c0 -99 0 -183 0 -187 0 -5 12 -8 27 -8 l26 0 -2 73 c-3
86 6 102 60 102 35 0 39 3 39 24 0 23 -5 25 -47 28 l-48 3 0 45 0 45 63 3 c58
3 62 4 62 27 0 25 -1 25 -90 25 l-90 0 0 -180z"/>
<path d="M5654 1378 l-19 -23 23 19 c21 18 27 26 19 26 -2 0 -12 -10 -23 -22z"/>
<path d="M4085 1380 c-3 -5 -1 -10 4 -10 6 0 11 5 11 10 0 6 -2 10 -4 10 -3 0
-8 -4 -11 -10z"/>
<path d="M860 1246 c0 -10 9 -16 21 -16 24 0 21 23 -4 28 -10 2 -17 -3 -17
-12z"/>
<path d="M5155 1125 c-23 -22 -25 -31 -25 -128 0 -95 2 -105 23 -125 30 -29
89 -30 117 -2 18 18 20 33 20 129 0 106 -1 110 -26 130 -36 28 -79 27 -109 -4z
m83 -27 c19 -19 16 -183 -4 -202 -19 -20 -23 -20 -46 1 -15 13 -18 31 -18 103
0 87 8 110 40 110 9 0 21 -5 28 -12z"/>
<path d="M3440 995 c0 -138 1 -145 20 -145 19 0 20 7 20 145 0 138 -1 145 -20
145 -19 0 -20 -7 -20 -145z"/>
<path d="M3540 995 c0 -138 1 -145 20 -145 18 0 20 7 20 84 0 47 4 87 9 90 4
3 27 -35 49 -84 61 -134 72 -126 72 55 0 122 -2 145 -15 145 -12 0 -15 -16
-15 -80 0 -104 -15 -104 -60 0 -29 66 -39 80 -57 80 -23 0 -23 -1 -23 -145z"/>
<path d="M3750 1125 c0 -10 11 -15 35 -15 l35 0 0 -130 c0 -123 1 -130 20
-130 19 0 20 7 20 130 l0 130 35 0 c24 0 35 5 35 15 0 12 -17 15 -90 15 -73 0
-90 -3 -90 -15z"/>
<path d="M3970 995 l0 -145 70 0 c63 0 70 2 70 20 0 17 -7 20 -51 20 l-50 0 3
48 c3 47 3 47 41 50 23 2 37 8 37 17 0 9 -14 15 -37 17 -37 3 -38 4 -41 46
l-3 42 45 0 c34 0 46 4 46 15 0 12 -14 15 -65 15 l-65 0 0 -145z"/>
<path d="M4160 995 c0 -138 1 -145 20 -145 18 0 20 7 20 65 0 63 1 65 25 65
14 0 25 -4 25 -10 0 -27 43 -120 56 -120 18 0 18 6 -6 75 -20 57 -20 57 0 82
26 33 26 83 0 111 -17 18 -32 22 -80 22 l-60 0 0 -145z m121 89 c14 -38 -12
-76 -49 -72 -25 3 -27 7 -30 51 l-3 47 36 0 c29 0 37 -5 46 -26z"/>
<path d="M4370 995 c0 -138 1 -145 20 -145 18 0 20 7 20 85 0 110 15 111 61 3
22 -52 41 -84 52 -86 15 -3 17 10 17 142 0 123 -2 146 -15 146 -12 0 -15 -16
-15 -80 0 -50 -4 -80 -11 -80 -6 0 -27 36 -46 80 -30 67 -40 80 -60 80 l-23 0
0 -145z"/>
<path d="M4636 1068 c-44 -209 -45 -218 -25 -218 12 0 21 11 27 33 7 27 13 33
42 35 36 4 50 -9 50 -45 0 -16 6 -23 20 -23 23 0 24 -11 -14 180 l-21 105 -32
3 -31 3 -16 -73z m63 -35 c15 -75 15 -73 -20 -73 l-31 0 6 48 c15 100 28 108
45 25z"/>
<path d="M4810 1125 c0 -10 10 -15 30 -15 l30 0 0 -130 c0 -123 1 -130 20
-130 18 0 20 8 22 128 l3 127 33 3 c20 2 32 9 32 18 0 11 -18 14 -85 14 -69 0
-85 -3 -85 -15z"/>
<path d="M5030 995 c0 -138 1 -145 20 -145 19 0 20 7 20 145 0 138 -1 145 -20
145 -19 0 -20 -7 -20 -145z"/>
<path d="M5350 996 c0 -141 1 -146 21 -146 19 0 20 4 14 39 -7 43 3 131 15
131 4 0 24 -38 45 -85 28 -63 42 -85 56 -85 18 0 19 10 19 145 0 138 -1 145
-20 145 -18 0 -20 -7 -20 -81 0 -52 -4 -79 -10 -77 -6 2 -26 37 -45 78 -24 54
-40 76 -55 78 -19 3 -20 -1 -20 -142z"/>
<path d="M5596 1003 c-14 -76 -26 -142 -26 -146 0 -4 9 -7 19 -7 15 0 21 8 23
33 3 28 7 32 37 35 37 4 51 -9 51 -45 0 -16 6 -23 20 -23 25 0 25 6 -8 160
l-27 125 -31 3 -32 3 -26 -138z m68 70 c3 -10 8 -39 12 -65 l6 -48 -32 0 c-29
0 -31 2 -26 28 3 15 8 44 12 65 7 39 19 48 28 20z"/>
<path d="M5790 995 l0 -145 69 0 c60 0 69 2 67 18 -2 13 -14 18 -49 20 l-47 3
0 125 c0 117 -1 124 -20 124 -19 0 -20 -7 -20 -145z"/>
<path d="M2184 973 c-12 -2 -32 -15 -45 -29 -23 -24 -24 -33 -24 -154 0 -122
1 -130 24 -154 33 -35 107 -37 146 -3 26 22 26 24 26 155 0 96 -3 138 -13 149
-13 16 -71 44 -85 42 -4 -1 -18 -4 -29 -6z m66 -72 c5 -11 10 -61 10 -111 0
-103 -9 -130 -45 -130 -36 0 -45 27 -45 130 0 103 9 130 45 130 14 0 29 -8 35
-19z"/>
<path d="M90 790 l0 -180 30 0 30 0 0 180 0 180 -30 0 -30 0 0 -180z"/>
<path d="M220 791 l0 -181 25 0 25 0 0 105 c0 58 3 105 8 105 4 0 27 -47 52
-103 40 -90 49 -102 73 -105 l27 -3 0 181 0 181 -26 -3 -27 -3 2 -99 c2 -72
-1 -97 -10 -94 -6 2 -31 46 -54 98 -37 82 -46 95 -69 98 l-26 3 0 -180z"/>
<path d="M470 945 c0 -22 4 -25 40 -25 l40 0 0 -155 0 -155 25 0 24 0 3 153 3
152 38 3 c32 3 37 7 37 28 0 24 0 24 -105 24 l-105 0 0 -25z"/>
<path d="M730 790 l0 -180 85 0 c84 0 85 0 85 25 0 23 -3 25 -48 25 -57 0 -72
12 -72 60 0 46 15 60 62 60 31 0 38 4 38 20 0 16 -7 20 -38 20 -43 0 -62 14
-62 46 0 46 9 54 66 54 51 0 54 1 54 25 0 25 -1 25 -85 25 l-85 0 0 -180z"/>
<path d="M960 791 l0 -181 25 0 c23 0 24 3 27 78 3 69 5 77 23 77 16 0 25 -15
46 -75 23 -67 29 -75 54 -78 20 -3 26 0 23 10 -3 7 -15 43 -27 80 l-23 68 21
26 c15 19 21 41 21 74 0 69 -29 93 -120 98 l-70 4 0 -181z m129 115 c7 -8 11
-30 9 -48 -2 -25 -9 -35 -29 -42 -45 -15 -59 -3 -59 54 l0 50 34 0 c18 0 39
-6 45 -14z"/>
<path d="M1210 789 l0 -180 27 3 27 3 -1 103 c0 56 3 102 7 102 4 0 28 -46 53
-102 39 -88 50 -103 71 -106 l26 -3 0 180 0 181 -25 0 -25 0 0 -100 c0 -55 -4
-100 -8 -100 -5 0 -26 39 -47 88 -47 106 -51 112 -81 112 l-24 0 0 -181z"/>
<path d="M1540 967 c0 -2 -16 -82 -35 -177 -19 -95 -35 -175 -35 -177 0 -2 13
-3 29 -3 25 0 29 4 35 40 6 39 7 40 46 40 41 0 43 -2 54 -52 5 -21 12 -28 31
-28 15 0 25 6 25 15 0 15 -57 296 -66 328 -4 12 -16 17 -45 17 -21 0 -39 -1
-39 -3z m58 -144 c6 -36 9 -70 6 -75 -8 -12 -54 -10 -54 4 0 31 23 138 30 138
4 0 12 -30 18 -67z"/>
<path d="M1730 946 c0 -21 5 -25 38 -28 l37 -3 3 -152 3 -153 24 0 25 0 0 155
0 155 40 0 c36 0 40 3 40 25 l0 25 -105 0 c-105 0 -105 0 -105 -24z"/>
<path d="M1990 790 l0 -180 30 0 30 0 0 180 0 180 -30 0 -30 0 0 -180z"/>
<path d="M2374 957 c-2 -7 -3 -87 -2 -177 l3 -165 28 -3 27 -3 0 105 c0 64 4
106 10 106 6 0 10 -4 10 -10 0 -5 19 -52 43 -105 38 -87 44 -96 67 -93 l25 3
3 178 2 177 -30 0 -30 0 0 -100 c0 -55 -3 -100 -7 -100 -5 0 -28 45 -52 100
-38 87 -47 100 -68 100 -13 0 -26 -6 -29 -13z"/>
<path d="M2672 805 c-18 -91 -35 -172 -39 -180 -4 -11 3 -15 25 -15 28 0 31 4
37 41 7 40 7 40 48 37 39 -3 42 -5 50 -40 8 -33 13 -38 38 -38 25 0 29 3 24
23 -3 12 -20 92 -38 177 l-32 155 -40 3 -40 3 -33 -166z m88 21 c7 -36 9 -69
5 -75 -7 -13 -42 -15 -49 -3 -7 12 15 142 24 142 4 0 13 -29 20 -64z"/>
<path d="M2910 790 l0 -180 79 0 c76 0 79 1 83 25 5 23 3 24 -51 27 l-56 3 -3
153 -3 152 -24 0 -25 0 0 -180z"/>
<path d="M3464 715 c-33 -33 -25 -56 38 -116 50 -46 55 -70 20 -84 -11 -4 -24
2 -37 19 -12 14 -26 26 -33 26 -20 0 -13 -30 14 -57 20 -20 31 -24 56 -19 43
9 58 24 58 59 0 24 -11 41 -50 77 -51 48 -62 76 -33 87 10 4 23 -2 34 -15 20
-25 39 -29 39 -7 0 22 -37 55 -60 55 -12 0 -32 -11 -46 -25z"/>
<path d="M3607 733 c-14 -13 -6 -22 21 -25 l27 -3 3 -112 c2 -91 5 -113 17
-113 12 0 15 19 15 99 0 116 4 131 36 131 15 0 24 6 24 15 0 12 -14 15 -68 15
-38 0 -72 -3 -75 -7z"/>
<path d="M3805 728 c-10 -33 -45 -241 -41 -245 11 -11 35 7 38 29 2 18 9 23
33 23 23 0 30 -5 35 -25 6 -24 40 -42 40 -21 0 6 -11 63 -25 127 -14 64 -25
117 -25 120 0 10 -51 3 -55 -8z m41 -94 c7 -48 -6 -78 -26 -58 -11 11 -2 104
11 104 4 0 11 -21 15 -46z"/>
<path d="M3950 610 c0 -109 2 -130 15 -130 12 0 15 13 15 55 0 48 3 55 19 55
15 0 24 -13 37 -55 16 -49 30 -65 46 -50 3 3 -4 30 -15 60 -18 51 -19 56 -3
73 9 10 16 35 16 55 0 45 -28 67 -87 67 l-43 0 0 -130z m90 86 c26 -32 -7 -87
-44 -73 -16 6 -23 66 -9 80 11 12 40 8 53 -7z"/>
<path d="M4117 726 c-4 -10 2 -16 21 -18 l27 -3 3 -113 c2 -101 5 -113 20
-110 14 3 18 20 22 113 5 105 6 110 28 113 12 2 22 10 22 18 0 20 -135 20
-143 0z"/>
<path d="M4299 733 c0 -5 0 -55 1 -113 0 -93 3 -107 21 -122 28 -23 61 -23 90
1 23 18 24 26 24 127 0 96 -2 109 -17 112 -16 3 -18 -7 -18 -97 0 -77 -4 -103
-16 -115 -19 -20 -19 -20 -38 0 -12 12 -16 38 -16 115 0 81 -3 99 -15 99 -8 0
-15 -3 -16 -7z"/>
<path d="M4480 609 c0 -119 2 -130 18 -127 13 2 18 15 20 56 3 50 4 52 31 52
39 0 61 28 61 78 0 51 -26 72 -87 72 l-43 0 0 -131z m88 89 c27 -27 7 -78 -30
-78 -15 0 -18 8 -18 45 0 37 3 45 18 45 10 0 23 -5 30 -12z"/>
<path d="M4735 727 c-3 -7 -4 -65 -3 -128 2 -93 6 -114 18 -114 11 0 16 14 18
58 3 56 4 57 32 57 20 0 30 5 30 15 0 10 -10 15 -31 15 -29 0 -30 2 -27 38 3
35 5 37 41 40 56 5 41 26 -21 30 -37 2 -54 -1 -57 -11z"/>
<path d="M4884 727 c-2 -7 -3 -65 -2 -128 l3 -114 58 -3 c52 -3 57 -1 57 18 0
17 -6 20 -40 20 -40 0 -40 0 -40 39 0 37 2 40 33 43 40 4 42 21 2 28 -27 5
-30 9 -30 40 0 33 2 35 38 38 24 2 37 8 37 18 0 19 -108 20 -116 1z"/>
<path d="M5072 724 c-39 -27 -29 -68 28 -123 51 -49 57 -72 22 -86 -11 -4 -24
2 -37 19 -12 14 -26 26 -33 26 -20 0 -13 -30 14 -57 20 -20 31 -24 57 -19 73
14 76 71 7 135 -51 47 -63 77 -33 88 10 4 23 -2 34 -15 20 -25 39 -29 39 -7 0
21 -36 55 -58 55 -10 0 -28 -7 -40 -16z"/>
<path d="M5210 725 c0 -9 9 -15 25 -15 24 0 24 0 27 -112 3 -97 5 -113 20
-116 15 -3 18 9 20 110 l3 113 27 3 c19 2 25 8 21 18 -8 21 -143 20 -143 -1z"/>
<path d="M5390 610 c0 -120 2 -131 18 -128 15 3 17 17 17 128 0 111 -2 125
-17 128 -16 3 -18 -8 -18 -128z"/>
<path d="M5470 723 c1 -10 11 -67 23 -128 20 -97 25 -110 45 -113 24 -4 21
-10 52 142 24 117 24 116 6 116 -14 0 -27 -42 -42 -140 -4 -22 -10 -40 -14
-40 -4 0 -10 18 -14 40 -15 98 -28 140 -42 140 -8 0 -14 -8 -14 -17z"/>
<path d="M5652 627 c-12 -63 -22 -122 -22 -131 0 -28 28 -17 35 14 6 25 11 30
36 30 25 0 30 -5 36 -30 5 -28 26 -40 36 -22 3 4 -7 61 -22 127 -25 113 -28
120 -52 123 -25 3 -26 1 -47 -111z m63 7 c7 -50 -5 -78 -26 -57 -12 12 -2 103
11 103 4 0 11 -21 15 -46z"/>
<path d="M5820 735 c-1 -3 -1 -60 -1 -127 l0 -123 55 -3 c44 -2 56 0 56 12 0
10 -12 16 -37 18 l-38 3 -3 113 c-2 90 -5 112 -17 112 -8 0 -15 -2 -15 -5z"/>
<path d="M1609 479 c-36 -13 -49 -48 -49 -129 0 -86 10 -114 48 -129 33 -14
63 -8 87 15 23 24 21 205 -2 226 -25 22 -54 28 -84 17z m59 -125 c2 -63 -1
-84 -13 -94 -29 -24 -45 5 -45 80 0 84 6 102 34 98 19 -3 21 -10 24 -84z"/>
<path d="M2790 483 c-44 -16 -50 -33 -50 -134 0 -75 4 -101 16 -113 37 -37
107 -26 124 19 14 36 13 158 -1 189 -7 14 -25 30 -42 36 -16 5 -30 10 -31 9
-1 0 -8 -3 -16 -6z m48 -129 c2 -65 0 -84 -14 -95 -27 -22 -44 13 -44 91 0 68
12 93 40 88 12 -3 16 -21 18 -84z"/>
<path d="M116 458 c-26 -37 -19 -58 39 -113 59 -57 63 -66 40 -85 -19 -16 -45
-6 -52 21 -6 23 -36 22 -41 -2 -1 -9 6 -26 16 -39 40 -50 132 -20 132 42 0 23
-13 42 -57 83 -56 52 -57 55 -40 72 18 17 19 17 37 -4 32 -40 64 -20 36 22
-22 34 -88 35 -110 3z"/>
<path d="M270 460 c0 -16 7 -20 30 -20 l30 0 0 -110 c0 -103 1 -110 20 -110
19 0 20 7 20 109 l0 110 27 3 c17 2 29 10 31 21 3 15 -6 17 -77 17 -74 0 -81
-2 -81 -20z"/>
<path d="M486 463 c-5 -18 -46 -230 -46 -239 0 -3 10 -4 23 -2 14 2 23 11 25
26 3 19 9 23 35 20 24 -2 33 -8 35 -25 2 -17 10 -23 27 -23 15 0 23 5 20 13
-2 6 -13 57 -25 112 -30 141 -28 135 -60 135 -19 0 -30 -6 -34 -17z m44 -62
c0 -10 3 -33 6 -50 6 -27 4 -31 -16 -31 -16 0 -20 4 -16 16 3 9 6 31 6 50 0
19 5 34 10 34 6 0 10 -8 10 -19z"/>
<path d="M630 350 c0 -122 1 -130 19 -130 17 0 20 8 23 53 2 38 7 52 18 52 9
0 22 -21 34 -52 13 -38 24 -53 37 -53 24 0 24 8 0 67 -19 48 -19 49 0 72 25
30 24 76 -1 101 -15 15 -33 20 -75 20 l-55 0 0 -130z m106 66 c8 -34 -2 -46
-37 -46 -27 0 -29 3 -29 35 0 32 2 35 30 35 23 0 31 -5 36 -24z"/>
<path d="M800 460 c0 -16 7 -20 30 -20 l30 0 0 -110 c0 -103 1 -110 20 -110
19 0 20 7 20 109 l0 110 27 3 c17 2 29 10 31 21 3 15 -6 17 -77 17 -74 0 -81
-2 -81 -20z"/>
<path d="M980 370 c0 -106 1 -112 26 -137 20 -20 31 -24 57 -19 61 12 67 27
67 153 0 106 -1 113 -20 113 -19 0 -20 -7 -20 -99 0 -77 -4 -103 -16 -115 -38
-39 -54 -3 -54 118 0 89 -1 96 -20 96 -19 0 -20 -7 -20 -110z"/>
<path d="M1160 350 l0 -130 25 0 c24 0 25 3 25 55 0 54 0 55 30 55 41 0 70 31
70 75 0 53 -28 75 -95 75 l-55 0 0 -130z m100 75 c18 -21 -2 -65 -30 -65 -17
0 -20 7 -20 40 0 32 4 40 19 40 10 0 24 -7 31 -15z"/>
<path d="M1410 350 l0 -130 25 0 c24 0 25 3 25 54 0 54 0 55 33 58 20 2 32 8
32 18 0 10 -12 16 -32 18 -30 3 -33 6 -33 38 0 33 1 34 40 34 33 0 40 3 40 20
0 18 -7 20 -65 20 l-65 0 0 -130z"/>
<path d="M1750 366 c0 -113 0 -115 27 -136 33 -26 79 -21 106 11 14 17 17 41
17 130 l0 109 -25 0 -25 0 0 -104 c0 -80 -3 -106 -15 -116 -12 -10 -18 -10
-30 0 -12 10 -15 36 -15 116 0 97 -1 104 -20 104 -19 0 -20 -7 -20 -114z"/>
<path d="M1930 350 c0 -123 1 -130 20 -130 18 0 20 7 20 70 0 39 3 70 8 70 4
0 20 -32 36 -70 25 -58 34 -70 53 -70 23 0 23 1 23 130 l0 130 -26 0 c-25 0
-26 -1 -22 -70 2 -39 1 -70 -2 -70 -3 0 -19 32 -37 70 -24 54 -36 70 -52 70
-20 0 -21 -5 -21 -130z"/>
<path d="M2120 350 l0 -130 54 0 c48 0 57 4 76 28 19 24 21 37 18 110 -4 102
-20 122 -99 122 l-49 0 0 -130z m84 84 c13 -5 16 -22 16 -85 0 -68 -3 -80 -20
-89 -11 -6 -25 -8 -30 -5 -6 3 -10 46 -10 96 0 92 3 99 44 83z"/>
<path d="M2335 458 c-11 -48 -45 -221 -45 -230 0 -5 10 -8 23 -6 14 2 23 11
25 26 3 19 9 23 35 20 24 -2 33 -8 35 -25 2 -17 10 -23 27 -23 15 0 23 5 20
13 -2 6 -13 57 -25 112 -30 142 -28 135 -60 135 -22 0 -31 -6 -35 -22z m45
-57 c0 -10 3 -33 6 -50 6 -27 4 -31 -16 -31 -16 0 -20 4 -16 16 3 9 6 31 6 50
0 19 5 34 10 34 6 0 10 -8 10 -19z"/>
<path d="M2472 463 c2 -11 14 -19 31 -21 l27 -3 0 -110 c0 -102 1 -109 20
-109 19 0 20 7 20 110 l0 110 30 0 c23 0 30 4 30 20 0 18 -7 20 -81 20 -71 0
-80 -2 -77 -17z"/>
<path d="M2660 350 c0 -123 1 -130 20 -130 19 0 20 7 20 130 0 123 -1 130 -20
130 -19 0 -20 -7 -20 -130z"/>
<path d="M2920 350 c0 -122 1 -130 20 -130 17 0 19 8 22 73 l3 72 34 -72 c24
-52 39 -73 52 -73 18 0 19 10 19 130 0 123 -1 130 -20 130 -18 0 -20 -7 -21
-72 l-1 -73 -34 73 c-25 55 -38 72 -54 72 -19 0 -20 -6 -20 -130z"/>
<path d="M3502 334 c-15 -10 -22 -26 -22 -49 0 -59 57 -89 81 -42 l12 22 -22
-20 c-30 -26 -55 -10 -59 38 -4 46 23 65 58 40 13 -9 20 -11 16 -5 -15 25 -42
32 -64 16z"/>
<path d="M4221 333 c-25 -17 -29 -84 -6 -103 19 -16 61 -5 69 17 6 15 4 14
-14 -2 -29 -26 -54 -9 -58 38 -4 43 26 68 52 42 18 -19 27 -19 20 -1 -8 21
-40 26 -63 9z"/>
<path d="M4413 290 c0 -36 2 -50 4 -32 2 17 2 47 0 65 -2 17 -4 3 -4 -33z"/>
<path d="M4453 290 c0 -36 2 -50 4 -32 2 17 2 47 0 65 -2 17 -4 3 -4 -33z"/>
<path d="M4581 294 c-1 -59 0 -62 26 -69 26 -6 53 13 53 38 0 23 -23 47 -45
47 -17 0 -25 7 -28 23 -2 12 -5 -6 -6 -39z m57 -26 c-3 -36 -24 -44 -41 -17
-14 23 -2 49 23 49 18 0 21 -5 18 -32z"/>
<path d="M5363 285 c0 -38 2 -53 4 -32 2 20 2 52 0 70 -2 17 -4 1 -4 -38z"/>
<path d="M5491 293 c-1 -54 2 -62 19 -68 30 -10 52 13 48 49 -2 25 -8 32 -30
34 -18 2 -28 10 -31 25 -2 12 -5 -6 -6 -40z m57 -19 c3 -23 -21 -49 -38 -39
-5 3 -10 20 -10 36 0 26 3 30 23 27 13 -2 23 -11 25 -24z"/>
<path d="M4928 328 c-9 -24 7 -101 22 -106 13 -5 13 -3 1 11 -8 11 -12 30 -8
50 6 36 -6 70 -15 45z"/>
<path d="M5158 315 c-22 -48 21 -113 59 -89 9 6 19 17 22 25 3 9 -1 8 -13 -4
-10 -9 -21 -17 -25 -17 -31 0 -44 86 -15 97 9 3 26 1 36 -6 16 -10 19 -10 16
1 -3 7 -19 14 -36 16 -26 3 -34 -1 -44 -23z"/>
<path d="M4057 323 c-4 -3 -4 -17 -2 -29 3 -13 7 -35 10 -49 3 -14 11 -25 17
-25 9 0 9 3 0 12 -15 15 -16 65 -1 70 7 2 6 8 -3 16 -8 6 -18 9 -21 5z"/>
<path d="M5729 318 c-3 -38 8 -98 19 -98 12 0 7 103 -6 108 -7 2 -13 -2 -13
-10z"/>
<path d="M4698 307 c-25 -20 -28 -45 -8 -69 15 -19 22 -21 37 -12 26 16 29 70
5 83 -14 7 -24 7 -34 -2z m40 -38 c3 -26 -19 -46 -39 -33 -11 6 -12 48 -2 58
15 14 38 0 41 -25z"/>
<path d="M3594 283 c-9 -34 7 -58 37 -58 30 0 49 45 29 69 -21 26 -59 20 -66
-11z m60 1 c7 -19 -11 -57 -26 -52 -19 7 -32 34 -25 52 8 21 43 21 51 0z"/>
<path d="M3691 268 l2 -43 6 35 c9 50 41 55 41 6 0 -20 5 -36 10 -36 11 0 13
39 4 64 -4 10 -18 16 -35 16 -28 0 -29 -2 -28 -42z"/>
<path d="M3780 271 c0 -23 5 -41 11 -41 6 0 10 10 9 23 -4 39 0 47 19 47 15 0
21 -9 24 -37 l4 -38 -1 40 c-1 38 -3 40 -33 43 -32 3 -33 2 -33 -37z"/>
<path d="M3879 289 c-8 -16 -8 -28 0 -45 10 -23 44 -33 55 -16 3 5 -4 8 -16 8
-12 -1 -23 5 -25 12 -3 7 5 12 21 12 30 0 42 16 26 35 -18 22 -48 18 -61 -6z
m51 -4 c0 -8 -9 -15 -20 -15 -11 0 -20 7 -20 15 0 8 9 15 20 15 11 0 20 -7 20
-15z"/>
<path d="M3974 296 c-9 -24 0 -58 18 -70 14 -8 21 -6 35 9 16 17 17 18 1 6
-26 -20 -50 -6 -46 26 3 24 7 28 31 26 15 -1 25 2 22 8 -9 14 -55 11 -61 -5z"/>
<path d="M4317 304 c-13 -13 -7 -61 9 -75 24 -20 49 1 49 42 0 29 -4 34 -25
37 -14 2 -29 0 -33 -4z m48 -39 c0 -23 -4 -30 -20 -30 -21 0 -31 25 -21 51 11
28 41 12 41 -21z"/>
<path d="M4496 301 c-3 -4 6 -6 19 -3 33 6 32 -14 0 -22 -16 -4 -25 -13 -25
-26 0 -25 13 -32 44 -24 22 5 25 11 21 38 -2 17 -4 34 -4 39 -1 10 -49 9 -55
-2z m36 -63 c-9 -9 -15 -9 -24 0 -10 10 -10 15 2 22 20 12 38 -6 22 -22z"/>
<path d="M4782 268 c1 -41 1 -41 5 -8 3 19 10 38 16 42 8 5 6 8 -5 8 -15 0
-18 -8 -16 -42z"/>
<path d="M4836 301 c-3 -4 6 -6 19 -3 33 6 32 -14 0 -22 -16 -4 -25 -13 -25
-26 0 -24 13 -32 42 -25 20 5 23 11 20 46 -4 33 -8 39 -27 39 -13 0 -26 -4
-29 -9z m42 -53 c-3 -7 -11 -13 -18 -13 -7 0 -15 6 -17 13 -3 7 4 12 17 12 13
0 20 -5 18 -12z"/>
<path d="M4980 290 c-6 -12 -8 -29 -5 -40 7 -22 43 -36 56 -23 6 6 1 9 -12 9
-12 -1 -24 5 -26 12 -3 7 5 12 20 12 31 0 39 8 26 31 -13 25 -46 24 -59 -1z
m50 -5 c0 -8 -9 -15 -20 -15 -11 0 -20 7 -20 15 0 8 9 15 20 15 11 0 20 -7 20
-15z"/>
<path d="M5272 298 c-15 -15 -16 -50 0 -66 15 -15 45 -16 54 -1 4 7 0 9 -13 5
-12 -4 -25 -1 -33 9 -11 13 -8 15 19 15 28 0 32 3 29 23 -3 25 -36 35 -56 15z
m48 -13 c0 -16 -35 -21 -44 -6 -8 12 4 21 26 21 10 0 18 -7 18 -15z"/>
<path d="M5400 294 c-29 -34 23 -96 54 -64 8 9 6 11 -10 6 -13 -4 -26 -1 -34
9 -11 13 -8 15 17 15 37 0 45 8 32 31 -12 23 -42 25 -59 3z m50 -9 c0 -8 -9
-15 -20 -15 -11 0 -20 7 -20 15 0 8 9 15 20 15 11 0 20 -7 20 -15z"/>
<path d="M5581 268 c2 -34 3 -37 6 -13 2 17 12 36 21 43 14 11 13 12 -6 12
-19 0 -22 -5 -21 -42z"/>
<path d="M5640 302 c0 -5 11 -7 25 -4 15 2 25 0 25 -7 0 -6 -6 -11 -13 -11 -7
0 -22 -6 -33 -14 -18 -14 -18 -16 -3 -31 11 -11 24 -15 38 -10 18 5 22 13 19
43 -3 32 -7 37 -30 40 -16 2 -28 -1 -28 -6z m50 -53 c0 -12 -29 -24 -37 -16
-3 4 -3 13 0 21 6 16 37 11 37 -5z"/>
<path d="M5792 298 c-15 -15 -16 -50 0 -66 15 -15 45 -16 54 -1 4 7 0 9 -13 5
-12 -4 -25 -1 -33 9 -11 13 -8 15 19 15 28 0 32 3 29 23 -3 25 -36 35 -56 15z
m48 -13 c0 -16 -35 -21 -44 -6 -8 12 4 21 26 21 10 0 18 -7 18 -15z"/>
</g>
</svg>
