<svg width="461" height="204" viewBox="0 0 461 204" fill="none" xmlns="http://www.w3.org/2000/svg">
<rect x="1.50606" y="2.05684" width="458.228" height="200" rx="11.3924" fill="white"/>
<rect x="1.50606" y="2.05684" width="458.228" height="200" rx="11.3924" stroke="#EFEDEA" stroke-width="2.53165"/>
<g clip-path="url(#clip0_120_587)">
<path d="M207.441 90.5416L200.399 90.8951L197.806 84.4135L195.45 91.1898L189.056 90.7184L186.139 72.3046L193.446 71.5091L194.477 80.9664L197.748 74.9267L201.254 81.703L202.226 71.8921L209.915 72.1867L207.441 90.5416ZM222.684 91.3665L222.448 83.7653L218.795 83.7359L219.06 90.8951L211.252 91.3076L210.221 71.951L218.323 71.5386L218.589 78.6978L222.301 78.6684L222.124 72.0394L230.226 71.9805L231.022 91.0719L222.684 91.3665ZM244.506 91.4549L243.976 87.9195H239.763L239.056 90.9541L231.013 91.3076L237.671 71.6269L246.922 70.5958L251.99 90.8362L244.506 91.4549ZM242.09 78.0497L241.03 82.6163L242.945 82.4985L242.09 78.0497ZM265.495 91.6317L259.425 85.5036L259.75 90.4827L252.855 91.0719L252.001 71.3618C253.435 71.2832 254.859 71.2145 256.273 71.1556C257.707 71.0966 259.141 71.0672 260.574 71.0672C261.615 71.0672 262.686 71.1752 263.786 71.3913C264.905 71.6073 265.917 71.9707 266.82 72.4813C267.744 72.9724 268.5 73.65 269.089 74.5142C269.678 75.3588 269.973 76.4096 269.973 77.6667C269.973 78.8844 269.619 79.9254 268.912 80.7897C268.225 81.6342 267.38 82.3315 266.379 82.8815L270.857 86.7999L265.495 91.6317ZM262.931 78.3738C262.931 77.9809 262.823 77.647 262.607 77.3721C262.411 77.0774 262.146 76.8417 261.812 76.665C261.498 76.4882 261.144 76.3605 260.751 76.282C260.378 76.1837 260.025 76.1346 259.691 76.1346C259.632 76.1346 259.543 76.1346 259.425 76.1346C259.308 76.1346 259.17 76.1445 259.013 76.1641L259.249 80.7897C259.563 80.77 259.936 80.7111 260.368 80.6129C260.8 80.5147 261.203 80.3772 261.576 80.2004C261.949 80.004 262.264 79.7585 262.519 79.4639C262.794 79.1692 262.931 78.8059 262.931 78.3738ZM278.878 79.6996L278.967 81.1432H283.828L284.005 85.3857H279.232L279.645 91.4844L272.22 91.6317L271.012 72.2162L288.247 70.8904L288.424 79.7585L278.878 79.6996ZM314.069 84.8554C314.069 86.191 313.814 87.3106 313.303 88.2141C312.812 89.098 312.154 89.805 311.329 90.3354C310.504 90.8657 309.552 91.2389 308.472 91.4549C307.411 91.671 306.311 91.779 305.172 91.779C304.465 91.779 303.738 91.7299 302.992 91.6317C302.265 91.5531 301.538 91.4451 300.811 91.3076C300.085 91.1505 299.368 90.9737 298.661 90.7773C297.954 90.5612 297.296 90.3452 296.687 90.1291L298.13 83.0582C298.504 83.2154 298.926 83.3725 299.397 83.5296C299.869 83.6671 300.35 83.7948 300.841 83.9126C301.332 84.0305 301.823 84.1287 302.314 84.2073C302.805 84.2662 303.257 84.2956 303.669 84.2956C303.944 84.2956 304.19 84.2465 304.406 84.1483C304.622 84.0501 304.73 83.8341 304.73 83.5002C304.73 83.1859 304.533 82.9502 304.141 82.7931C303.748 82.6359 303.247 82.4886 302.638 82.3511C302.049 82.194 301.401 82.0271 300.694 81.8503C300.006 81.6735 299.358 81.3985 298.749 81.0253C298.16 80.6325 297.669 80.1218 297.276 79.4933C296.883 78.8648 296.687 78.0399 296.687 77.0185C296.687 75.9382 296.942 74.9954 297.453 74.1901C297.963 73.3652 298.621 72.6778 299.427 72.1278C300.252 71.5582 301.155 71.1359 302.137 70.8609C303.139 70.5663 304.111 70.419 305.054 70.419C306.154 70.419 307.391 70.5467 308.766 70.802C310.141 71.0573 311.506 71.4796 312.861 72.0689L311.595 78.3443C311.084 78.1282 310.544 77.9122 309.974 77.6961C309.424 77.4604 308.864 77.2542 308.295 77.0774C307.725 76.9007 307.165 76.7533 306.615 76.6355C306.065 76.5177 305.535 76.4587 305.024 76.4587C304.769 76.4587 304.553 76.5177 304.376 76.6355C304.219 76.7337 304.141 76.9203 304.141 77.1953C304.141 77.5292 304.386 77.7845 304.877 77.9613C305.368 78.1381 305.977 78.3148 306.704 78.4916C307.45 78.6487 308.246 78.8452 309.09 79.0809C309.954 79.2969 310.75 79.6406 311.477 80.112C312.223 80.5638 312.842 81.1727 313.333 81.9387C313.824 82.685 314.069 83.6573 314.069 84.8554ZM325.783 78.1675L326.49 91.3371H318.742L318.918 77.9613L314.263 77.814L314.087 71.0966L330.703 70.9199L330.762 78.3443L325.783 78.1675ZM344.674 91.6317L338.605 85.5036L338.929 90.4827L332.035 91.0719L331.18 71.3618C332.614 71.2832 334.038 71.2145 335.452 71.1556C336.886 71.0966 338.32 71.0672 339.754 71.0672C340.795 71.0672 341.865 71.1752 342.965 71.3913C344.085 71.6073 345.096 71.9707 346 72.4813C346.923 72.9724 347.679 73.65 348.268 74.5142C348.858 75.3588 349.152 76.4096 349.152 77.6667C349.152 78.8844 348.799 79.9254 348.092 80.7897C347.404 81.6342 346.56 82.3315 345.558 82.8815L350.036 86.7999L344.674 91.6317ZM342.111 78.3738C342.111 77.9809 342.003 77.647 341.787 77.3721C341.59 77.0774 341.325 76.8417 340.991 76.665C340.677 76.4882 340.323 76.3605 339.931 76.282C339.557 76.1837 339.204 76.1346 338.87 76.1346C338.811 76.1346 338.723 76.1346 338.605 76.1346C338.487 76.1346 338.349 76.1445 338.192 76.1641L338.428 80.7897C338.742 80.77 339.115 80.7111 339.548 80.6129C339.98 80.5147 340.382 80.3772 340.756 80.2004C341.129 80.004 341.443 79.7585 341.698 79.4639C341.973 79.1692 342.111 78.8059 342.111 78.3738ZM351.429 91.9558L350.339 71.8626L364.746 70.5074L365.158 77.6077L357.262 78.3443L357.351 79.6112L362.153 79.2282L362.477 82.9698L357.616 83.3823L357.704 84.7965L365.836 84.4724L365.865 91.8379L351.429 91.9558ZM367.397 91.9558L366.307 71.8626L380.714 70.5074L381.126 77.6077L373.231 78.3443L373.319 79.6112L378.121 79.2282L378.445 82.9698L373.584 83.3823L373.672 84.7965L381.804 84.4724L381.833 91.8379L367.397 91.9558ZM393.972 78.1675L394.679 91.3371H386.93L387.107 77.9613L382.452 77.814L382.275 71.0966L398.892 70.9199L398.951 78.3443L393.972 78.1675Z" fill="black"/>
<path d="M217.703 124.466C217.703 126.823 217.253 128.797 216.352 130.391C215.486 131.951 214.325 133.198 212.87 134.133C211.414 135.069 209.734 135.727 207.828 136.108C205.957 136.489 204.017 136.68 202.007 136.68C200.76 136.68 199.478 136.593 198.161 136.42C196.879 136.282 195.597 136.091 194.315 135.848C193.033 135.571 191.769 135.259 190.521 134.913C189.274 134.532 188.113 134.151 187.039 133.77L189.586 121.296C190.244 121.573 190.989 121.85 191.821 122.128C192.652 122.37 193.501 122.595 194.367 122.803C195.233 123.011 196.1 123.184 196.966 123.323C197.832 123.427 198.629 123.479 199.357 123.479C199.842 123.479 200.275 123.392 200.656 123.219C201.037 123.046 201.228 122.665 201.228 122.076C201.228 121.521 200.881 121.105 200.188 120.828C199.495 120.551 198.612 120.291 197.538 120.049C196.498 119.772 195.355 119.477 194.107 119.165C192.895 118.853 191.751 118.368 190.677 117.71C189.638 117.017 188.771 116.116 188.078 115.007C187.385 113.899 187.039 112.443 187.039 110.642C187.039 108.736 187.489 107.073 188.39 105.652C189.291 104.197 190.452 102.984 191.872 102.014C193.328 101.009 194.922 100.264 196.654 99.7793C198.421 99.2596 200.136 98.9997 201.799 98.9997C203.74 98.9997 205.922 99.2249 208.348 99.6753C210.773 100.126 213.181 100.871 215.572 101.91L213.337 112.98C212.436 112.599 211.484 112.218 210.479 111.837C209.509 111.421 208.521 111.057 207.516 110.746C206.512 110.434 205.524 110.174 204.554 109.966C203.584 109.758 202.648 109.654 201.747 109.654C201.297 109.654 200.916 109.758 200.604 109.966C200.327 110.139 200.188 110.468 200.188 110.953C200.188 111.542 200.621 111.993 201.487 112.305C202.354 112.617 203.428 112.928 204.71 113.24C206.026 113.517 207.43 113.864 208.92 114.28C210.444 114.661 211.847 115.267 213.129 116.099C214.446 116.896 215.537 117.97 216.404 119.321C217.27 120.638 217.703 122.353 217.703 124.466ZM238.367 112.669L239.614 135.9H225.945L226.257 112.305L218.045 112.045L217.733 100.195L247.046 99.8832L247.15 112.98L238.367 112.669ZM280.267 101.754C280.198 105.011 280.163 108.234 280.163 111.421C280.163 114.609 280.128 117.831 280.059 121.088C279.99 123.41 279.574 125.506 278.812 127.377C278.05 129.248 276.975 130.842 275.589 132.158C274.238 133.44 272.61 134.445 270.704 135.173C268.798 135.866 266.685 136.212 264.363 136.212C262.042 136.212 259.963 135.814 258.127 135.017C256.325 134.22 254.766 133.129 253.449 131.743C252.167 130.322 251.145 128.676 250.383 126.805C249.655 124.9 249.222 122.855 249.083 120.672C248.875 117.519 248.702 114.366 248.564 111.213C248.46 108.026 248.321 104.838 248.148 101.65L260.621 101.338C260.656 104.145 260.708 106.952 260.777 109.758C260.846 112.565 260.968 115.371 261.141 118.178C261.176 118.697 261.21 119.304 261.245 119.997C261.314 120.655 261.453 121.279 261.661 121.868C261.903 122.457 262.232 122.959 262.648 123.375C263.064 123.756 263.653 123.947 264.415 123.947C265.004 123.947 265.472 123.791 265.819 123.479C266.165 123.167 266.408 122.786 266.546 122.336C266.719 121.85 266.823 121.348 266.858 120.828C266.893 120.274 266.91 119.789 266.91 119.373C266.91 116.428 266.841 113.5 266.702 110.59C266.598 107.645 266.494 104.699 266.39 101.754H280.267ZM315.631 115.579C315.631 118.143 315.112 120.447 314.072 122.491C313.067 124.536 311.716 126.337 310.018 127.897C308.32 129.421 306.363 130.738 304.145 131.847C301.928 132.921 299.624 133.822 297.233 134.549C294.877 135.242 292.521 135.779 290.165 136.16C287.809 136.541 285.626 136.767 283.616 136.836L281.069 101.235C282.836 100.957 284.621 100.732 286.423 100.559C288.224 100.386 290.026 100.299 291.828 100.299C294.53 100.299 297.285 100.611 300.091 101.235C302.898 101.824 305.445 102.742 307.731 103.989C310.053 105.236 311.941 106.83 313.397 108.771C314.886 110.676 315.631 112.946 315.631 115.579ZM302.274 116.67C302.17 115.666 301.876 114.817 301.391 114.124C300.906 113.396 300.317 112.824 299.624 112.409C298.931 111.958 298.151 111.629 297.285 111.421C296.453 111.213 295.639 111.109 294.842 111.109L295.986 124.155C296.817 123.912 297.614 123.566 298.376 123.115C299.139 122.63 299.797 122.076 300.351 121.452C300.94 120.828 301.408 120.135 301.755 119.373C302.101 118.576 302.274 117.71 302.274 116.774V116.67ZM318.526 134.913L316.914 101.338L330.583 100.559L331.103 134.705L318.526 134.913ZM367.216 117.918C367.216 120.309 366.766 122.561 365.865 124.674C364.964 126.753 363.717 128.59 362.123 130.183C360.564 131.743 358.728 132.973 356.614 133.874C354.535 134.774 352.3 135.225 349.91 135.225C347.519 135.225 345.267 134.774 343.153 133.874C341.074 132.973 339.255 131.743 337.696 130.183C336.137 128.59 334.907 126.753 334.006 124.674C333.105 122.561 332.655 120.309 332.655 117.918C332.655 115.527 333.105 113.275 334.006 111.161C334.907 109.048 336.137 107.211 337.696 105.652C339.255 104.093 341.074 102.863 343.153 101.962C345.267 101.027 347.519 100.559 349.91 100.559C352.3 100.559 354.535 101.027 356.614 101.962C358.728 102.863 360.564 104.093 362.123 105.652C363.717 107.211 364.964 109.048 365.865 111.161C366.766 113.275 367.216 115.527 367.216 117.918ZM354.015 117.866C354.015 117.346 353.929 116.809 353.756 116.255C353.617 115.666 353.392 115.146 353.08 114.696C352.768 114.245 352.37 113.881 351.884 113.604C351.434 113.292 350.897 113.136 350.273 113.136C349.684 113.136 349.147 113.292 348.662 113.604C348.212 113.881 347.831 114.245 347.519 114.696C347.207 115.146 346.964 115.666 346.791 116.255C346.618 116.809 346.531 117.346 346.531 117.866C346.531 118.386 346.618 118.94 346.791 119.529C346.964 120.083 347.207 120.586 347.519 121.036C347.831 121.487 348.212 121.868 348.662 122.18C349.147 122.457 349.684 122.595 350.273 122.595C350.897 122.595 351.434 122.457 351.884 122.18C352.37 121.868 352.768 121.487 353.08 121.036C353.392 120.586 353.617 120.083 353.756 119.529C353.929 118.94 354.015 118.386 354.015 117.866ZM398.948 124.466C398.948 126.823 398.498 128.797 397.597 130.391C396.731 131.951 395.57 133.198 394.115 134.133C392.66 135.069 390.979 135.727 389.074 136.108C387.202 136.489 385.262 136.68 383.253 136.68C382.005 136.68 380.723 136.593 379.407 136.42C378.125 136.282 376.843 136.091 375.561 135.848C374.279 135.571 373.014 135.259 371.767 134.913C370.519 134.532 369.358 134.151 368.284 133.77L370.831 121.296C371.489 121.573 372.234 121.85 373.066 122.128C373.897 122.37 374.746 122.595 375.613 122.803C376.479 123.011 377.345 123.184 378.211 123.323C379.077 123.427 379.874 123.479 380.602 123.479C381.087 123.479 381.52 123.392 381.901 123.219C382.282 123.046 382.473 122.665 382.473 122.076C382.473 121.521 382.126 121.105 381.433 120.828C380.741 120.551 379.857 120.291 378.783 120.049C377.743 119.772 376.6 119.477 375.353 119.165C374.14 118.853 372.997 118.368 371.922 117.71C370.883 117.017 370.017 116.116 369.324 115.007C368.631 113.899 368.284 112.443 368.284 110.642C368.284 108.736 368.735 107.073 369.636 105.652C370.537 104.197 371.697 102.984 373.118 102.014C374.573 101.009 376.167 100.264 377.899 99.7793C379.666 99.2596 381.382 98.9997 383.045 98.9997C384.985 98.9997 387.168 99.2249 389.593 99.6753C392.019 100.126 394.427 100.871 396.817 101.91L394.583 112.98C393.682 112.599 392.729 112.218 391.724 111.837C390.754 111.421 389.766 111.057 388.762 110.746C387.757 110.434 386.769 110.174 385.799 109.966C384.829 109.758 383.894 109.654 382.993 109.654C382.542 109.654 382.161 109.758 381.849 109.966C381.572 110.139 381.433 110.468 381.433 110.953C381.433 111.542 381.867 111.993 382.733 112.305C383.599 112.617 384.673 112.928 385.955 113.24C387.272 113.517 388.675 113.864 390.165 114.28C391.689 114.661 393.093 115.267 394.375 116.099C395.691 116.896 396.783 117.97 397.649 119.321C398.515 120.638 398.948 122.353 398.948 124.466Z" fill="black"/>
<path d="M169.409 134.658V70.2196L113.705 38L58 70.2196V134.658L113.705 166.876L169.409 134.658Z" fill="url(#paint0_linear_120_587)"/>
<path d="M129.951 91.7892L125.117 88.9919L115.01 94.841C114.68 95.0322 114.305 95.1329 113.923 95.1329C113.542 95.1329 113.167 95.0322 112.837 94.841L102.73 88.9919L102.34 88.7663C102.01 88.5752 101.736 88.3002 101.545 87.9692C101.354 87.6381 101.254 87.2625 101.254 86.8803V74.7305C101.254 74.3481 101.354 73.9725 101.545 73.6413C101.736 73.3102 102.01 73.0351 102.34 72.844L112.837 66.7693C113.167 66.5782 113.542 66.4775 113.923 66.4775C114.305 66.4775 114.679 66.5782 115.01 66.7693L125.506 72.844C125.837 73.0352 126.111 73.3102 126.302 73.6413C126.492 73.9725 126.593 74.3481 126.593 74.7305V86.3634L131.164 89.0089V72.2622C131.164 71.8798 131.064 71.5042 130.873 71.1731C130.682 70.842 130.408 70.5671 130.077 70.3761L114.883 61.5826C114.553 61.3913 114.178 61.2905 113.797 61.2905C113.415 61.2905 113.04 61.3913 112.71 61.5826L97.5164 70.3773C97.186 70.5683 96.9116 70.8432 96.7208 71.1743C96.5301 71.5054 96.4297 71.881 96.4297 72.2634V89.8505C96.4298 90.2474 96.5381 90.6368 96.7431 90.9765L98.0212 91.7158L113.754 100.821C114.052 100.827 114.348 100.772 114.624 100.659C114.713 100.622 114.799 100.579 114.883 100.531L129.969 91.8003L129.951 91.7892Z" fill="#F3F3F3"/>
<path d="M124.677 85.2563V75.7933C124.677 75.411 124.576 75.0354 124.386 74.7043C124.195 74.3733 123.921 74.0984 123.59 73.9073L114.931 68.8953C114.6 68.7042 114.226 68.6035 113.844 68.6035C113.463 68.6035 113.088 68.7042 112.758 68.8953L104.098 73.9073C103.768 74.0985 103.493 74.3735 103.303 74.7045C103.112 75.0356 103.012 75.4111 103.012 75.7933V85.817C103.012 86.1994 103.112 86.5749 103.303 86.9061C103.493 87.2372 103.768 87.5122 104.098 87.7036L104.526 87.9514L112.757 92.7153C113.087 92.9064 113.462 93.007 113.843 93.007C114.225 93.007 114.599 92.9064 114.93 92.7153L123.239 87.906L117.949 84.8439L114.896 86.6104C114.566 86.8015 114.191 86.9022 113.81 86.9022C113.428 86.9022 113.053 86.8015 112.723 86.6104L109.783 84.9086L109.633 84.8217C109.302 84.6306 109.028 84.3556 108.837 84.0244C108.646 83.6933 108.546 83.3176 108.546 82.9351V79.3579C108.546 78.9755 108.646 78.5998 108.837 78.2686C109.028 77.9375 109.302 77.6625 109.633 77.4713L112.723 75.6826C113.053 75.4914 113.428 75.3908 113.809 75.3908C114.191 75.3908 114.566 75.4914 114.896 75.6826L117.988 77.4716C118.318 77.6627 118.593 77.9376 118.783 78.2687C118.974 78.5997 119.074 78.9753 119.074 79.3576V82.0137L124.677 85.2563Z" fill="#F3F3F3"/>
<path d="M112.423 104.791C112.423 104.292 112.251 103.808 111.937 103.421L96.5543 94.5177V100.04L106.639 105.876C106.97 106.067 107.244 106.342 107.434 106.673C107.625 107.005 107.725 107.38 107.725 107.763V119.911C107.725 120.294 107.625 120.669 107.434 121C107.244 121.331 106.97 121.606 106.639 121.798L106.604 121.819L96.1429 127.872C95.8126 128.064 95.4379 128.165 95.0565 128.165C94.675 128.165 94.3003 128.064 93.9701 127.872L83.4738 121.798C83.1434 121.607 82.869 121.332 82.6783 121.001C82.4876 120.67 82.3873 120.294 82.3875 119.912V107.762C82.3873 107.379 82.4877 107.004 82.6784 106.673C82.8691 106.341 83.1434 106.066 83.4738 105.875L93.7359 99.936V94.2461L78.7757 102.904C78.4455 103.095 78.1712 103.37 77.9805 103.701C77.7898 104.033 77.6894 104.408 77.6895 104.79V122.378C77.6893 122.76 77.7895 123.136 77.9801 123.467C78.1706 123.798 78.4448 124.073 78.775 124.264L93.9691 133.058C94.2995 133.249 94.6742 133.35 95.0557 133.35C95.4371 133.35 95.8118 133.249 96.1422 133.058L111.083 124.411L111.337 124.264C111.667 124.073 111.941 123.798 112.132 123.467C112.323 123.136 112.423 122.76 112.423 122.378V104.791Z" fill="#F3F3F3"/>
<path d="M149.069 102.904L134.36 94.392L133.874 94.1109C133.443 93.8615 132.939 93.7683 132.447 93.8471L131.289 94.5169L115.906 103.42C115.592 103.807 115.42 104.291 115.42 104.79V121.851L115.494 121.808L120.118 119.132V107.51C120.118 107.128 120.218 106.753 120.409 106.422C120.6 106.09 120.874 105.815 121.204 105.624L127.412 102.032L131.289 99.788L131.701 99.5497C132.031 99.3584 132.406 99.2576 132.787 99.2576C133.169 99.2576 133.544 99.3584 133.874 99.5497L134.359 99.8303L137.939 101.902L144.37 105.624C144.7 105.815 144.975 106.09 145.165 106.421C145.356 106.752 145.456 107.128 145.456 107.51V119.659C145.456 120.042 145.356 120.417 145.165 120.748C144.975 121.08 144.7 121.355 144.37 121.546L133.874 127.621C133.543 127.812 133.169 127.912 132.787 127.912C132.406 127.912 132.031 127.812 131.701 127.621L121.584 121.765L116.886 124.484L131.701 133.058C132.031 133.249 132.406 133.35 132.787 133.35C133.169 133.35 133.543 133.249 133.874 133.058L149.068 124.265C149.399 124.073 149.673 123.798 149.863 123.467C150.054 123.136 150.154 122.76 150.154 122.378V104.791C150.154 104.409 150.054 104.033 149.863 103.702C149.673 103.371 149.399 103.096 149.069 102.904Z" fill="#F3F3F3"/>
<path d="M90.641 117.601C90.3106 117.41 90.0363 117.135 89.8456 116.803C89.6548 116.472 89.5544 116.097 89.5545 115.714V112.137C89.5545 111.755 89.6549 111.379 89.8456 111.048C90.0363 110.717 90.3106 110.442 90.641 110.251L93.7313 108.463L93.7351 108.461V102.017L85.2313 106.939C84.901 107.13 84.6268 107.405 84.436 107.736C84.2453 108.067 84.1447 108.443 84.1445 108.825V118.848C84.1447 119.23 84.2452 119.606 84.436 119.937C84.6267 120.268 84.901 120.543 85.2313 120.735L93.8904 125.746C94.2207 125.938 94.5955 126.038 94.977 126.038C95.3585 126.038 95.7332 125.938 96.0636 125.746L104.723 120.735L104.726 120.733C105.056 120.541 105.329 120.267 105.52 119.936C105.71 119.605 105.81 119.23 105.81 118.848V108.825C105.81 108.442 105.71 108.067 105.519 107.736C105.329 107.405 105.055 107.13 104.725 106.938L96.5549 102.21V108.838L98.9958 110.251C99.3261 110.442 99.6004 110.717 99.7911 111.048C99.9818 111.379 100.082 111.755 100.082 112.137V115.715C100.082 116.067 99.997 116.413 99.8342 116.724C99.6715 117.036 99.4359 117.303 99.1476 117.504C99.0983 117.538 99.0481 117.571 98.9956 117.601L95.905 119.39C95.5747 119.581 95.2 119.682 94.8185 119.682C94.4371 119.682 94.0623 119.581 93.732 119.39L90.641 117.601Z" fill="#F3F3F3"/>
<path d="M136.853 117.601L133.762 119.389C133.432 119.58 133.057 119.681 132.676 119.681C132.294 119.681 131.92 119.58 131.59 119.389L128.639 117.682L123.382 120.725L131.623 125.494C131.953 125.685 132.328 125.785 132.709 125.785C133.091 125.785 133.466 125.685 133.796 125.494L142.456 120.482C142.786 120.291 143.06 120.016 143.251 119.685C143.442 119.354 143.542 118.978 143.542 118.596V108.572C143.542 108.19 143.442 107.814 143.251 107.483C143.06 107.152 142.786 106.877 142.456 106.686L137.94 104.072L134.36 102.001L133.796 101.675C133.466 101.483 133.091 101.383 132.709 101.383C132.328 101.383 131.953 101.483 131.623 101.675L131.29 101.868L127.412 104.112L122.964 106.686C122.633 106.877 122.359 107.152 122.168 107.483C121.977 107.815 121.877 108.19 121.877 108.573V118.115L127.413 114.911V112.137C127.413 111.754 127.513 111.379 127.704 111.048C127.895 110.717 128.169 110.442 128.499 110.251L131.29 108.635L131.59 108.462C131.92 108.271 132.295 108.17 132.676 108.17C133.057 108.17 133.432 108.271 133.763 108.462L134.36 108.808L136.853 110.251C137.184 110.442 137.458 110.717 137.648 111.048C137.839 111.379 137.94 111.755 137.94 112.137V115.714C137.939 116.097 137.839 116.472 137.648 116.803C137.457 117.134 137.183 117.409 136.853 117.601Z" fill="#F3F3F3"/>
</g>
<defs>
<linearGradient id="paint0_linear_120_587" x1="60.6906" y1="138.927" x2="159.995" y2="53.4264" gradientUnits="userSpaceOnUse">
<stop stop-color="#FF5182"/>
<stop offset="0.51" stop-color="#6678FF"/>
<stop offset="1" stop-color="#34F7BB"/>
</linearGradient>
<clipPath id="clip0_120_587">
<rect width="341.772" height="146.835" fill="white" transform="translate(58.4688 28.6387)"/>
</clipPath>
</defs>
</svg>
